<svg xmlns="http://www.w3.org/2000/svg" width="21.508" height="26" viewBox="0 0 21.508 26"><g transform="translate(-1885.861 -285.293)"><path d="M1902.349,307.514h-4.407a1.208,1.208,0,0,1,0-2.415h4.407a1.208,1.208,0,0,1,0,2.415Z" transform="translate(-0.776 -1.415)" fill="#a8a3b2"/><path d="M1900.977,295.577h-7.861a1.207,1.207,0,1,1,0-2.414h7.861a1.207,1.207,0,1,1,0,2.414Z" transform="translate(-0.432 -0.562)" fill="#a8a3b2"/><path d="M1900.977,300.5h-7.861a1.208,1.208,0,1,1,0-2.415h7.861a1.208,1.208,0,1,1,0,2.415Z" transform="translate(-0.432 -0.914)" fill="#a8a3b2"/><path d="M1903.915,311.293h-14.6a3.458,3.458,0,0,1-3.453-3.454V288.746a3.458,3.458,0,0,1,3.453-3.453h14.6a3.458,3.458,0,0,1,3.453,3.453v19.092A3.458,3.458,0,0,1,1903.915,311.293Zm-14.6-23.585a1.04,1.04,0,0,0-1.038,1.038v19.092a1.04,1.04,0,0,0,1.038,1.039h14.6a1.04,1.04,0,0,0,1.038-1.039V288.746a1.04,1.04,0,0,0-1.038-1.038Z" transform="translate(0)" fill="#a8a3b2"/></g></svg>