<svg xmlns="http://www.w3.org/2000/svg" width="14" height="14" viewBox="0 0 14 14">
  <path id="Path_2545" data-name="Path 2545" d="M-264.886,493.135c-.39.39-.637.907-.974.974-.974.2-2.33-1.161-2.923-1.754s-1.95-1.949-1.755-2.923c.068-.338.585-.585.974-.974a1.877,1.877,0,0,0,.483-.843l-.805-3.338a2.7,2.7,0,0,0-3.539.246c-1.056,1.056-.76,2.488-.426,3.935a12.96,12.96,0,0,0,8.966,8.965c1.446.335,2.878.63,3.935-.426a2.7,2.7,0,0,0,.245-3.538l-3.337-.805A1.883,1.883,0,0,0-264.886,493.135Z" transform="translate(274.161 -483.732)" fill="currentColor"/>
</svg>
