<svg xmlns="http://www.w3.org/2000/svg" width="18" height="12.977" viewBox="0 0 18 12.977">
  <g id="Group_2071" data-name="Group 2071" transform="translate(-488.175 -536.818)">
    <path id="Path_2484" data-name="Path 2484" d="M495.078,538.808h11.212a.734.734,0,0,0,0-1.467H495.078a.734.734,0,0,0,0,1.467Z" transform="translate(-0.849 -0.072)" fill="currentColor"/>
    <path id="Path_2485" data-name="Path 2485" d="M506.291,543.517H495.078a.733.733,0,0,0,0,1.466h11.212a.733.733,0,0,0,0-1.466Z" transform="translate(-0.849 -0.921)" fill="currentColor"/>
    <path id="Path_2486" data-name="Path 2486" d="M506.291,549.4H495.078a.733.733,0,0,0,0,1.466h11.212a.733.733,0,0,0,0-1.466Z" transform="translate(-0.849 -1.73)" fill="currentColor"/>
    <circle id="Ellipse_4" data-name="Ellipse 4" cx="1.294" cy="1.294" r="1.294" transform="translate(488.175 547.208)" fill="currentColor"/>
    <circle id="Ellipse_5" data-name="Ellipse 5" cx="1.294" cy="1.294" r="1.294" transform="translate(488.175 542.023)" fill="currentColor"/>
    <circle id="Ellipse_6" data-name="Ellipse 6" cx="1.294" cy="1.294" r="1.294" transform="translate(488.175 536.818)" fill="currentColor"/>
  </g>
</svg>
