<svg id="Group_2150" data-name="Group 2150" xmlns="http://www.w3.org/2000/svg" width="21" height="12.751" viewBox="0 0 21 12.751">
  <g id="Group_2148" data-name="Group 2148">
    <path id="Path_2508" data-name="Path 2508" d="M-272.154,465.835a2.789,2.789,0,0,0,1.747-.615c0-.034,0-.069,0-.105a3.6,3.6,0,0,1,1.053-2.549,2.843,2.843,0,0,0-2.8-2.457,2.849,2.849,0,0,0-2.828,2.864A2.849,2.849,0,0,0-272.154,465.835Z" transform="translate(277.354 -460.109)" fill="currentColor"/>
    <path id="Path_2509" data-name="Path 2509" d="M-263.925,465.115c0,.036,0,.071,0,.106a2.8,2.8,0,0,0,1.747.614,2.849,2.849,0,0,0,2.828-2.863,2.849,2.849,0,0,0-2.828-2.864,2.843,2.843,0,0,0-2.8,2.457A3.6,3.6,0,0,1-263.925,465.115Z" transform="translate(277.98 -460.109)" fill="currentColor"/>
    <path id="Path_2510" data-name="Path 2510" d="M-256.983,469.3c-.01-1.8-1.08-2.9-2.948-3.519a5.582,5.582,0,0,1-2.253.563,5.8,5.8,0,0,1-1.938-.414,3.6,3.6,0,0,1-.808,1.327,4.478,4.478,0,0,1,3.247,3.106,15.245,15.245,0,0,0,4.692-.8C-256.984,469.483-256.983,469.406-256.983,469.3Z" transform="translate(277.983 -459.754)" fill="currentColor"/>
    <path id="Path_2511" data-name="Path 2511" d="M-269.269,467.254a3.6,3.6,0,0,1-.808-1.327,5.8,5.8,0,0,1-1.938.414,5.582,5.582,0,0,1-2.253-.563c-1.868.622-2.947,1.717-2.947,3.519,0,.115,0,.2.011.277a16.413,16.413,0,0,0,4.685.779A4.477,4.477,0,0,1-269.269,467.254Z" transform="translate(277.214 -459.754)" fill="currentColor"/>
  </g>
  <g id="Group_2149" data-name="Group 2149" transform="translate(5.3 2.143)">
    <path id="Path_2512" data-name="Path 2512" d="M-266.867,472.379a15.22,15.22,0,0,0,5.035-.807c.005-.072.006-.151.005-.258-.008-1.8-1.078-2.9-2.947-3.52a5.565,5.565,0,0,1-2.253.563,5.555,5.555,0,0,1-2.252-.563c-1.869.623-2.948,1.718-2.948,3.52,0,.114,0,.2.011.276A16.748,16.748,0,0,0-266.867,472.379Z" transform="translate(272.226 -461.771)" fill="currentColor"/>
    <path id="Path_2513" data-name="Path 2513" d="M-267.166,462.126a2.848,2.848,0,0,0-2.828,2.863,2.848,2.848,0,0,0,2.828,2.863,2.848,2.848,0,0,0,2.828-2.863A2.848,2.848,0,0,0-267.166,462.126Z" transform="translate(272.366 -462.126)" fill="currentColor"/>
  </g>
</svg>
