<svg xmlns="http://www.w3.org/2000/svg" width="24" height="15.161" viewBox="0 0 24 15.161"><g transform="translate(-1883.867 -35.593)"><path d="M1906.917,37.494h-22.1a.951.951,0,0,1,0-1.9h22.1a.951.951,0,0,1,0,1.9Z" fill="currentColor"/><path d="M1906.917,45.178h-22.1a.951.951,0,0,1,0-1.9h22.1a.951.951,0,0,1,0,1.9Z" transform="translate(0 -0.892)" fill="currentColor"/><path d="M1906.917,52.494h-22.1a.951.951,0,0,1,0-1.9h22.1a.951.951,0,0,1,0,1.9Z" transform="translate(0 -1.74)" fill="currentColor"/></g></svg>