<svg id="Group_2154" data-name="Group 2154" xmlns="http://www.w3.org/2000/svg" width="20" height="17.023" viewBox="0 0 20 17.023">
  <path id="Path_2516" data-name="Path 2516" d="M-267.146,387.646a1.568,1.568,0,0,0-1.567,1.567,1.568,1.568,0,0,0,1.567,1.567,1.567,1.567,0,0,0,1.566-1.567A1.567,1.567,0,0,0-267.146,387.646Z" transform="translate(278.945 -379.804)" fill="currentColor"/>
  <path id="Path_2517" data-name="Path 2517" d="M-263.313,384.85a.726.726,0,0,0,.725-.726.726.726,0,0,0-.725-.726.726.726,0,0,0-.727.726A.726.726,0,0,0-263.313,384.85Z" transform="translate(279.88 -380.654)" fill="currentColor"/>
  <path id="Path_2518" data-name="Path 2518" d="M-259.525,395.636l-3.642-3.114a3.028,3.028,0,0,0-.276-4.278l2.077-2.441a1.4,1.4,0,0,0,2.1-1.222,1.4,1.4,0,0,0-1.4-1.4,1.4,1.4,0,0,0-1.07,2.312l-2.094,2.46a3.028,3.028,0,0,0-3.051-.091l-2.861-4.324a1.394,1.394,0,0,0,.442-1.02,1.4,1.4,0,0,0-1.4-1.4,1.4,1.4,0,0,0-1.4,1.4,1.406,1.406,0,0,0,1.956,1.291l2.861,4.322a3.029,3.029,0,0,0-1.028,1.47l-6.12-1.778a1.4,1.4,0,0,0-1.388-1.614,1.4,1.4,0,0,0-1.4,1.4,1.4,1.4,0,0,0,1.4,1.405,1.4,1.4,0,0,0,1.23-.728l6.168,1.792a3.019,3.019,0,0,0,.468,2.11l-4.916,3.365a1.4,1.4,0,0,0-1.028-.449,1.4,1.4,0,0,0-1.4,1.4,1.4,1.4,0,0,0,1.4,1.405,1.406,1.406,0,0,0,1.3-1.948l4.931-3.374-.14-.208a3.028,3.028,0,0,0,4.307.481l3.674,3.142a1.406,1.406,0,0,0,1.2,2.128,1.4,1.4,0,0,0,1.4-1.405A1.406,1.406,0,0,0-259.525,395.636Zm-2.245-11.054a1.1,1.1,0,0,1,1.1-1.1,1.1,1.1,0,0,1,1.094,1.1,1.1,1.1,0,0,1-1.094,1.1A1.1,1.1,0,0,1-261.77,384.581Zm-8.942-.972a1.1,1.1,0,0,1-1.1-1.094,1.1,1.1,0,0,1,1.1-1.1,1.1,1.1,0,0,1,1.1,1.1A1.1,1.1,0,0,1-270.712,383.609Zm-5.124,5.1a1.1,1.1,0,0,1-1.1-1.1,1.1,1.1,0,0,1,1.1-1.1,1.1,1.1,0,0,1,1.1,1.1A1.1,1.1,0,0,1-275.836,388.707Zm1.921,8.9a1.1,1.1,0,0,1-1.1-1.1,1.1,1.1,0,0,1,1.1-1.1,1.1,1.1,0,0,1,1.1,1.1A1.094,1.094,0,0,1-273.915,397.6Zm8.474-4.718a2.365,2.365,0,0,1-2.365-2.365,2.365,2.365,0,0,1,2.365-2.365,2.366,2.366,0,0,1,2.365,2.365A2.366,2.366,0,0,1-265.441,392.885Zm6.8,4.94a1.1,1.1,0,0,1-1.1-1.1,1.094,1.094,0,0,1,1.1-1.094,1.1,1.1,0,0,1,1.1,1.094A1.1,1.1,0,0,1-258.644,397.826Z" transform="translate(277.24 -381.111)" fill="currentColor"/>
  <path id="Path_2519" data-name="Path 2519" d="M-261.622,393.522a.725.725,0,0,0-.727.725.727.727,0,0,0,.727.727.726.726,0,0,0,.726-.727A.725.725,0,0,0-261.622,393.522Z" transform="translate(280.218 -378.629)" fill="currentColor"/>
  <path id="Path_2520" data-name="Path 2520" d="M-274.348,393.337a.726.726,0,0,0-.726.726.727.727,0,0,0,.726.727.726.726,0,0,0,.726-.727A.725.725,0,0,0-274.348,393.337Z" transform="translate(277.673 -378.666)" fill="currentColor"/>
  <path id="Path_2521" data-name="Path 2521" d="M-275.949,385.923a.725.725,0,0,0-.726.725.726.726,0,0,0,.726.727.727.727,0,0,0,.727-.727A.726.726,0,0,0-275.949,385.923Z" transform="translate(277.353 -380.149)" fill="currentColor"/>
  <path id="Path_2522" data-name="Path 2522" d="M-271.679,381.676a.726.726,0,0,0-.726.726.725.725,0,0,0,.726.725.725.725,0,0,0,.726-.725A.726.726,0,0,0-271.679,381.676Z" transform="translate(278.207 -380.998)" fill="currentColor"/>
</svg>
