<svg id="Group_2156" data-name="Group 2156" xmlns="http://www.w3.org/2000/svg" width="18.377" height="21" viewBox="0 0 18.377 21">
  <path id="Path_2531" data-name="Path 2531" d="M-272.411,318.468a2.479,2.479,0,0,0,1.936-1.7h.006v-6.229a1.758,1.758,0,0,1,2.139,1.865,3.165,3.165,0,0,1-.326,1.39c.824-.984,1.347-1.266,1.392-2.086a2.222,2.222,0,0,0-.418-1.158,6.833,6.833,0,0,0-1.482-1.44,5.922,5.922,0,0,1-1.3-1.361v-.019h-.015c-.218-.3-.351-.521-.351-.521v8.72a2.728,2.728,0,0,0-2.378-.247c-1.272.366-2.127,1.285-1.906,2.055S-273.686,318.832-272.411,318.468Z" transform="translate(275.153 -307.207)" fill="currentColor"/>
  <path id="Path_2532" data-name="Path 2532" d="M-271.087,324.574c.222.771,1.432,1.1,2.707.732a2.475,2.475,0,0,0,1.937-1.7h.006v-7.642l7.28-1.608v7.515a2.72,2.72,0,0,0-2.376-.247c-1.275.366-2.128,1.284-1.908,2.055s1.433,1.1,2.706.732a2.485,2.485,0,0,0,1.938-1.7h.006v-10c-.473.1.523-.121-8.024,1.769l.02.09h-.008v8.2a2.73,2.73,0,0,0-2.376-.244C-270.453,322.885-271.308,323.806-271.087,324.574Z" transform="translate(277.169 -304.456)" fill="currentColor"/>
</svg>
