<svg id="Group_749" data-name="Group 749" xmlns="http://www.w3.org/2000/svg" width="14" height="14" viewBox="0 0 14 14">
  <path id="Path_1468" data-name="Path 1468" d="M275.771,476.015a7,7,0,1,0,7,7A7,7,0,0,0,275.771,476.015Zm0,.773a6.227,6.227,0,1,1-6.222,6.227A6.228,6.228,0,0,1,275.771,476.788Z" transform="translate(-268.771 -476.015)" fill="currentColor"/>
  <path id="Path_1469" data-name="Path 1469" d="M285.99,484l-4.854,1.313h-.006v1.974h.006v3.53a1.462,1.462,0,0,0-.752-.2,1.125,1.125,0,1,0,0,2.223,1.2,1.2,0,0,0,1.307-1.109l-.013-.315-.032-4.268,3.836-1.035v3.9a1.448,1.448,0,0,0-.82-.249,1.125,1.125,0,1,0,0,2.223,1.238,1.238,0,0,0,1.326-1.109v-.017l0-4.883V484Z" transform="translate(-276.073 -481.67)" fill="currentColor"/>
</svg>
