<svg id="Group_2158" data-name="Group 2158" xmlns="http://www.w3.org/2000/svg" width="21" height="16.902" viewBox="0 0 21 16.902">
  <path id="Path_2534" data-name="Path 2534" d="M-273.193,282.533a3.634,3.634,0,0,1,5.476-.387,3.633,3.633,0,0,1-.255,5.371A8.9,8.9,0,0,1-273.193,282.533Z" transform="translate(287.652 -281.081)" fill="currentColor"/>
  <path id="Path_2535" data-name="Path 2535" d="M-271.383,282.516a8.9,8.9,0,0,0,5.122,4.877,3.631,3.631,0,0,1-2.253.575A3.637,3.637,0,0,1-271.383,282.516Z" transform="translate(285.604 -280.708)" fill="currentColor"/>
  <path id="Path_2536" data-name="Path 2536" d="M-263.143,284.7a3.9,3.9,0,0,0,3.1,3.1l-7.133,6.326-2.294-2.3Z" transform="translate(276.347 -280.139)" fill="currentColor"/>
  <path id="Path_2537" data-name="Path 2537" d="M-262.043,291.091l.857.857-1.225,1.038-.67-.67Z" transform="translate(269.446 -278.478)" fill="currentColor"/>
  <path id="Path_2538" data-name="Path 2538" d="M-261.619,290.563a.247.247,0,0,1,.319.147c.27.732.473,2.107,1.052,2.585.379.311.535.179.881-.179.261-.268.616-.635,1.134-.455,1,.349.362,2.012,1.068,2.328.585.26,1.278-1.116,1.528-1.725a.247.247,0,0,1,.323-.136.248.248,0,0,1,.136.324c-.4.98-1.218,2.419-2.189,1.991-1.031-.459-.454-2.112-1.032-2.313-.2-.069-.338.048-.611.331-.321.331-.806.833-1.554.217-.733-.6-.924-2.034-1.2-2.8A.25.25,0,0,1-261.619,290.563Z" transform="translate(261.782 -278.62)" fill="currentColor"/>
</svg>
