<svg xmlns="http://www.w3.org/2000/svg" width="16" height="16.321" viewBox="0 0 16 16.321">
  <g id="Group_2146" data-name="Group 2146" transform="translate(381.057 -344.269)">
    <path id="Path_2506" data-name="Path 2506" d="M-372.811,362.017a23.419,23.419,0,0,0,7.746-1.241c.008-.112.009-.233.009-.4-.013-2.772-1.66-4.459-4.534-5.415a8.572,8.572,0,0,1-3.465.866,8.573,8.573,0,0,1-3.466-.866c-2.874.957-4.535,2.643-4.535,5.415,0,.176.007.312.018.425A25.74,25.74,0,0,0-372.811,362.017Z" transform="translate(0 -1.427)" fill="currentColor"/>
    <path id="Path_2507" data-name="Path 2507" d="M-372.495,344.269a4.382,4.382,0,0,0-4.349,4.4,4.381,4.381,0,0,0,4.349,4.4,4.382,4.382,0,0,0,4.349-4.4A4.382,4.382,0,0,0-372.495,344.269Z" transform="translate(-0.562 0)" fill="currentColor"/>
  </g>
</svg>
