<svg xmlns="http://www.w3.org/2000/svg" width="18" height="15.298" viewBox="0 0 18 15.298">
  <g id="Group_2160" data-name="Group 2160" transform="translate(276.391 -435.726)">
    <path id="Path_2539" data-name="Path 2539" d="M-269.09,448.264l-.432.083-1.374-2.913-2.418.469,2.043,4.055,2.419-.47a.619.619,0,0,0,.485-.73A.619.619,0,0,0-269.09,448.264Z" transform="translate(0.337 1.064)" fill="currentColor"/>
    <path id="Path_2540" data-name="Path 2540" d="M-261.706,438.785l.7,3.628c.721-.141,1.148-1.066.954-2.068S-260.985,438.645-261.706,438.785Z" transform="translate(1.609 0.333)" fill="currentColor"/>
    <path id="Path_2541" data-name="Path 2541" d="M-261.327,446.628a.938.938,0,0,1-1.108-.726l-1.763-9.07a.938.938,0,0,1,.757-1.088.938.938,0,0,1,1.108.726l1.763,9.07A.938.938,0,0,1-261.327,446.628Z" transform="translate(1.334)" fill="currentColor"/>
    <path id="Path_2542" data-name="Path 2542" d="M-269.886,440.111l.943,4.85,6.756.9-1.763-9.07Zm1.022.829-.185-.332,4.632-2.575.184.333Z" transform="translate(0.713 0.116)" fill="currentColor"/>
    <path id="Path_2543" data-name="Path 2543" d="M-276.345,443.493c.162.836.711,1.43,1.226,1.33l-.588-3.022C-276.222,441.9-276.509,442.659-276.345,443.493Z" transform="translate(0 0.666)" fill="currentColor"/>
    <path id="Path_2544" data-name="Path 2544" d="M-274.966,440.36a.759.759,0,0,0-.6.891l.87,4.476a.76.76,0,0,0,.891.6l5.223-1.015-1.16-5.968Zm3.16,1.32.56-.109.109.56-.56.109Zm-2.075,1.275.559-.109.109.559-.559.109Zm1.391,1.182-.56.109-.109-.559.56-.109Zm-.327-1.679-.559.109-.109-.559.559-.109Zm1.275,2.075-.559.109-.109-.559.559-.109Zm-.272-1.4-.559.109-.109-.559.559-.109Zm-.272-1.4-.559.11-.109-.56.559-.109Zm1.275,2.076-.56.109-.109-.56.56-.109Zm.4-.949-.559.109-.109-.559.559-.109Z" transform="translate(0.089 0.397)" fill="currentColor"/>
  </g>
</svg>
