<svg xmlns="http://www.w3.org/2000/svg" width="62" height="62" viewBox="0 0 62 62">
  <g id="Group_1623" data-name="Group 1623" style="isolation: isolate">
    <g id="Group_747" data-name="Group 747" transform="translate(16.415 16.934)">
      <g id="Group_746" data-name="Group 746" transform="translate(0 0)">
        <path id="Path_1467" data-name="Path 1467" d="M151.336,476.789A14.268,14.268,0,1,0,165.6,491.057,14.268,14.268,0,0,0,151.336,476.789Zm6.543,20.579a.889.889,0,0,1-1.223.3c-3.351-2.047-7.568-2.51-12.534-1.376a.889.889,0,1,1-.4-1.733c5.435-1.242,10.1-.708,13.858,1.59A.89.89,0,0,1,157.879,497.368Zm1.746-3.885a1.113,1.113,0,0,1-1.53.366,18.728,18.728,0,0,0-14.217-1.663,1.112,1.112,0,1,1-.647-2.128,20.812,20.812,0,0,1,16.028,1.9A1.113,1.113,0,0,1,159.625,493.483Zm.151-4.045c-4.6-2.731-12.185-2.982-16.576-1.65a1.334,1.334,0,0,1-.775-2.554c5.04-1.53,13.418-1.234,18.713,1.909a1.334,1.334,0,1,1-1.362,2.3Z" transform="translate(-137.068 -476.789)" fill="#1ed760"/>
      </g>
    </g>
    <g id="Rectangle_632" data-name="Rectangle 632" fill="none" stroke="#1ed760" stroke-width="1">
      <rect width="62" height="62" rx="14" stroke="none"/>
      <rect x="0.5" y="0.5" width="61" height="61" rx="13.5" fill="none"/>
    </g>
  </g>
</svg>
