<?xml version="1.0" standalone="no"?>
<!DOCTYPE svg PUBLIC "-//W3C//DTD SVG 20010904//EN"
 "http://www.w3.org/TR/2001/REC-SVG-20010904/DTD/svg10.dtd">
<svg version="1.0" xmlns="http://www.w3.org/2000/svg"
 width="2625.000000pt" height="816.000000pt" viewBox="0 0 2625.000000 816.000000"
 preserveAspectRatio="xMidYMid meet">

<g transform="translate(0.000000,816.000000) scale(0.100000,-0.100000)"
fill="#000000" stroke="none">
<path d="M5995 5730 c-356 -7 -449 -15 -582 -48 l-68 -17 -3 -363 -2 -362 60
44 c142 105 234 118 813 114 489 -3 532 1 663 63 109 51 223 195 273 345 25
76 46 203 34 214 -12 12 -778 18 -1188 10z"/>
<path d="M18390 5063 l0 -160 49 -6 c102 -12 199 -84 245 -181 42 -89 46 -144
46 -633 l0 -463 180 0 181 0 -4 548 c-3 488 -5 553 -21 607 -34 117 -75 186
-155 265 -117 116 -235 166 -423 177 l-98 6 0 -160z"/>
<path d="M19954 5205 c-151 -27 -345 -102 -420 -163 l-22 -17 67 -122 c37 -67
69 -125 73 -128 3 -3 26 8 52 25 138 93 395 144 558 109 115 -25 191 -77 233
-159 25 -49 51 -170 42 -194 -5 -12 -63 -15 -319 -19 -276 -4 -322 -7 -386
-25 -110 -31 -180 -69 -245 -133 -67 -68 -101 -135 -118 -235 -37 -228 99
-429 345 -511 73 -24 95 -27 236 -27 120 0 170 4 220 18 93 25 172 71 235 134
l55 55 0 -96 0 -97 171 0 170 0 -4 553 c-4 613 -2 598 -74 741 -66 132 -200
232 -370 277 -102 28 -378 35 -499 14z m586 -995 c0 -77 -4 -98 -25 -138 -71
-135 -204 -206 -385 -206 -120 0 -186 21 -245 78 -92 88 -82 243 19 305 67 42
127 50 389 50 l247 1 0 -90z"/>
<path d="M22095 5204 c-129 -27 -267 -107 -325 -189 -14 -19 -28 -35 -32 -35
-5 0 -8 52 -8 115 l0 115 -170 0 -170 0 0 -795 0 -795 179 0 180 0 3 448 c4
397 6 453 22 502 29 87 61 141 113 191 86 83 183 119 326 119 l87 0 0 170 0
170 -67 -1 c-38 0 -99 -7 -138 -15z"/>
<path d="M23320 5205 c-95 -21 -220 -87 -290 -152 l-60 -55 0 106 0 106 -175
0 -175 0 0 -1085 0 -1085 185 0 185 0 0 387 0 387 43 -41 c60 -59 144 -108
234 -140 72 -25 90 -27 238 -28 137 0 171 3 238 23 274 79 463 272 539 548 18
66 21 106 21 239 0 144 -2 169 -27 248 -32 108 -69 183 -131 265 -89 119 -204
198 -365 253 -88 30 -107 33 -245 35 -105 3 -169 -1 -215 -11z m275 -311 c156
-40 285 -175 324 -339 17 -69 15 -228 -4 -299 -70 -266 -350 -409 -619 -316
-142 49 -257 179 -295 334 -19 79 -15 231 8 307 49 156 167 272 321 315 64 17
195 17 265 -2z"/>
<path d="M5340 4091 c0 -207 4 -342 10 -346 5 -3 71 -15 147 -27 110 -16 210
-22 498 -27 l360 -7 60 -28 c80 -39 184 -144 222 -225 l28 -61 313 0 c298 0
312 1 312 19 0 41 -31 194 -56 273 -14 46 -49 128 -77 183 -86 168 -257 322
-439 394 -153 61 -198 66 -683 66 -395 1 -446 2 -500 19 -73 22 -122 47 -164
81 l-31 27 0 -341z"/>
<path d="M18970 2675 l0 -545 65 0 65 0 0 75 0 75 53 -54 c67 -68 136 -96 242
-96 227 0 377 171 363 415 -10 154 -79 265 -205 327 -60 29 -75 32 -157 33
-84 0 -97 -3 -159 -33 -47 -24 -77 -47 -102 -79 l-35 -46 0 237 0 236 -65 0
-65 0 0 -545z m506 102 c54 -28 94 -68 122 -121 22 -44 26 -63 26 -136 -1 -97
-15 -139 -69 -199 -51 -57 -122 -84 -204 -79 -111 7 -183 56 -229 156 -21 47
-24 65 -20 136 7 133 70 218 188 257 38 13 151 4 186 -14z"/>
<path d="M6607 3032 c-53 -85 -162 -185 -234 -213 -56 -22 -73 -23 -513 -30
-250 -4 -468 -12 -485 -17 l-30 -8 -3 -308 -2 -307 582 3 583 3 73 27 c188 68
400 238 518 414 89 134 176 336 190 445 l7 49 -325 0 -325 0 -36 -58z"/>
<path d="M21240 2985 l0 -105 -55 0 -55 0 0 -50 0 -50 54 0 55 0 3 -257 c3
-245 4 -260 25 -300 53 -98 199 -125 325 -62 37 19 37 19 24 51 -7 18 -16 41
-19 50 -6 16 -9 16 -41 3 -56 -23 -122 -20 -151 9 -30 30 -37 97 -33 326 l3
175 118 3 117 3 0 49 0 49 -117 3 -118 3 -3 103 -3 102 -64 0 -65 0 0 -105z"/>
<path d="M22020 2985 l0 -105 -55 0 -55 0 0 -50 0 -50 55 0 55 0 0 -237 c0
-246 6 -295 42 -346 50 -70 182 -92 287 -46 57 24 59 31 32 101 -10 27 -11 27
-46 12 -21 -9 -58 -14 -87 -12 -42 2 -55 8 -72 31 -20 27 -21 40 -21 260 l0
232 118 3 117 3 0 49 0 50 -120 0 -120 0 0 105 0 105 -65 0 -65 0 0 -105z"/>
<path d="M20367 2900 c-187 -48 -295 -202 -285 -409 8 -169 100 -296 249 -342
146 -45 342 -7 427 84 l22 23 -34 33 -33 32 -49 -31 c-56 -35 -131 -60 -184
-60 -104 0 -203 63 -246 155 -43 92 -66 85 287 85 l312 0 -7 75 c-16 176 -86
291 -204 336 -64 24 -195 34 -255 19z m186 -111 c72 -20 136 -97 152 -182 l7
-37 -252 0 -252 0 6 31 c15 78 82 159 152 184 47 17 135 19 187 4z"/>
<path d="M22960 2894 c-109 -29 -189 -98 -239 -203 -24 -51 -26 -67 -26 -176
0 -109 2 -125 27 -177 34 -73 103 -142 176 -176 52 -25 68 -27 177 -27 139 0
201 19 274 81 l42 37 -32 33 c-38 39 -49 41 -73 15 -10 -11 -41 -29 -69 -42
-61 -26 -170 -31 -231 -10 -54 19 -115 77 -142 136 -43 92 -66 85 287 85 l312
0 -7 75 c-11 118 -39 195 -92 255 -26 28 -63 59 -83 69 -80 41 -203 51 -301
25z m225 -118 c63 -29 100 -72 120 -138 8 -29 15 -55 15 -60 0 -4 -113 -8
-251 -8 l-251 0 6 31 c15 78 88 164 158 186 60 20 148 15 203 -11z"/>
<path d="M23820 2520 l0 -390 70 0 70 0 0 221 c0 263 5 284 75 354 51 52 102
75 164 75 l31 0 0 66 0 66 -47 -7 c-26 -4 -66 -16 -90 -27 -42 -20 -121 -96
-125 -120 -1 -7 -4 23 -7 67 l-6 80 -67 3 -68 3 0 -391z"/>
</g>
</svg>
