<?xml version="1.0" encoding="UTF-8" standalone="no"?>
<!DOCTYPE svg PUBLIC "-//W3C//DTD SVG 1.1//EN" "http://www.w3.org/Graphics/SVG/1.1/DTD/svg11.dtd">
<svg xmlns="http://www.w3.org/2000/svg" xmlns:xlink="http://www.w3.org/1999/xlink" version="1.1" width="1080pt" height="1080pt" viewBox="0 0 1080 1080">
<g enable-background="new">
<g id="Layer-1" data-name="Warstwa 1">
<clipPath id="cp0">
<path transform="matrix(1,0,0,-1,0,1080)" d="M 0 1080 L 1080 1080 L 1080 0 L 0 0 Z "/>
</clipPath>
<g clip-path="url(#cp0)">
<path transform="matrix(1,0,0,-1,643.137,461.13703)" d="M 0 0 C 0 -56.962 -46.177 -103.139 -103.139 -103.139 C -160.101 -103.139 -206.278 -56.962 -206.278 0 C -206.278 56.962 -160.101 103.139 -103.139 103.139 L -103.138 103.139 C -46.177 103.138 -.001 56.961 0 0 " fill="#1d53b4"/>
<path transform="matrix(1,0,0,-1,801.334,382.72303)" d="M 0 0 C -10.751 4.8 -19.945 -9.055 -11.374 -17.125 C 6.618 -34.068 16.712 -53.099 16.712 -73.218 C 16.712 -144.071 -108.438 -201.508 -262.815 -201.508 C -417.192 -201.508 -542.346 -144.071 -542.346 -73.218 C -542.346 -54.066 -533.195 -35.9 -516.793 -19.586 C -508.453 -11.286 -517.767 2.343 -528.43 -2.625 C -595.153 -33.695 -636.334 -76.352 -636.334 -123.422 C -636.334 -218.473 -468.442 -295.529 -261.334 -295.529 C -54.226 -295.529 113.666 -218.474 113.666 -123.422 C 113.666 -75.011 70.11 -31.269 0 0 " fill="#1d53b4"/>
</g>
</g>
</g>
</svg>
