<svg xmlns="http://www.w3.org/2000/svg" width="21" height="21" viewBox="0 0 21 21">
  <g id="Group_2300" data-name="Group 2300" transform="translate(-1630 -271)">
    <rect id="Rectangle_1175" data-name="Rectangle 1175" width="21" height="21" rx="10.5" transform="translate(1630 271)" fill="#f54545"/>
    <path id="Path_2571" data-name="Path 2571" d="M1609.791,1324.443h0a8.072,8.072,0,1,0,0,11.421A8.086,8.086,0,0,0,1609.79,1324.442Zm-1.52,1.52a5.932,5.932,0,0,1,.682,7.544l-8.226-8.226a5.911,5.911,0,0,1,7.544.682Zm-8.38,8.381a5.92,5.92,0,0,1-.689-7.55l8.231,8.232A5.927,5.927,0,0,1,1599.891,1334.344Z" transform="translate(36.491 -1048.582)" fill="#fff"/>
  </g>
</svg>
