<svg xmlns="http://www.w3.org/2000/svg" width="14" height="14" viewBox="0 0 14 14">
  <path id="Path_1467" data-name="Path 1467" d="M144.068,476.789a7,7,0,1,0,7,7A7,7,0,0,0,144.068,476.789Zm3.21,10.1a.436.436,0,0,1-.6.145,8.053,8.053,0,0,0-6.15-.675.436.436,0,1,1-.194-.85,8.885,8.885,0,0,1,6.8.78A.437.437,0,0,1,147.278,486.886Zm.856-1.906a.546.546,0,0,1-.751.18,9.188,9.188,0,0,0-6.975-.816.546.546,0,1,1-.317-1.044,10.211,10.211,0,0,1,7.864.93A.546.546,0,0,1,148.135,484.979Zm.074-1.985a11.642,11.642,0,0,0-8.132-.809.655.655,0,0,1-.38-1.253,12.932,12.932,0,0,1,9.181.936.655.655,0,1,1-.668,1.126Z" transform="translate(-137.068 -476.789)" fill="currentColor"/>
</svg>
