<svg xmlns="http://www.w3.org/2000/svg" xmlns:xlink="http://www.w3.org/1999/xlink" width="42" height="42" viewBox="0 0 42 42">
  <defs>
    <clipPath id="clip-path">
      <rect id="Rectangle_740" data-name="Rectangle 740" width="42" height="42" fill="#4e79ed"/>
    </clipPath>
  </defs>
  <g id="Group_1396" data-name="Group 1396" clip-path="url(#clip-path)">
    <path id="Path_1540" data-name="Path 1540" d="M21,0A21,21,0,1,0,42,21,21.024,21.024,0,0,0,21,0m0,37.333A16.333,16.333,0,1,1,37.333,21,16.351,16.351,0,0,1,21,37.333" fill="#4e79ed"/>
    <path id="Path_1541" data-name="Path 1541" d="M7.11,4.029A1.556,1.556,0,0,0,4.752,5.361V20.574A1.558,1.558,0,0,0,7.11,21.909L19.732,14.3a1.554,1.554,0,0,0,0-2.663Z" transform="translate(10.032 8.032)" fill="#4e79ed"/>
  </g>
</svg>
