<svg xmlns="http://www.w3.org/2000/svg" width="19" height="17.797" viewBox="0 0 19 17.797">
  <g id="Group_2163" data-name="Group 2163" transform="translate(275.12 -408.958)">
    <path id="Path_2548" data-name="Path 2548" d="M-264.694,411.544h0l.422-1.67c.252-.025.741.335.265,1,.29-.21.447-.25.514-.466a1.129,1.129,0,0,0-.334-.824,1.664,1.664,0,0,1-.257-.454v0h0c-.039-.1-.059-.163-.059-.163l-.59,2.336c-.292-.393-1.284-.239-1.271.2C-265.988,411.958-264.865,412.008-264.694,411.544Z" transform="translate(1.947)" fill="currentColor"/>
    <path id="Path_2549" data-name="Path 2549" d="M-273.3,411.965h0l.422-1.671c.255-.024.741.337.266,1,.337-.244.649-.328.481-.8-.178-.449-.345-.413-.558-.939l0,0h0c-.038-.1-.058-.164-.058-.164l-.591,2.338c-.292-.394-1.284-.24-1.271.194C-274.6,412.38-273.472,412.429-273.3,411.965Z" transform="translate(0.109 0.09)" fill="currentColor"/>
    <path id="Path_2550" data-name="Path 2550" d="M-269.558,411.417v.025h0l-.512,2.207c-.3-.387-1.29-.215-1.268.22.024.468,1.148.5,1.311.029h0l.478-2.057,2.061.022-.47,2.023c-.3-.388-1.289-.215-1.267.221.024.468,1.149.493,1.311.029h0c.085-.365.576-2.482.626-2.694C-267.42,411.44-267.139,411.442-269.558,411.417Z" transform="translate(0.807 0.525)" fill="currentColor"/>
    <path id="Path_2551" data-name="Path 2551" d="M-261.568,414.481h0l.478-2.058,2.061.023-.47,2.023c-.3-.388-1.289-.216-1.267.22.024.47,1.149.494,1.312.029h0c.416-1.794.619-2.665.626-2.694-.133,0,.149,0-2.272-.025v.025h0l-.512,2.209a.759.759,0,0,0-.625-.216c-.366.019-.654.214-.643.434C-262.856,414.92-261.732,414.947-261.568,414.481Z" transform="translate(2.613 0.649)" fill="currentColor"/>
    <path id="Path_2552" data-name="Path 2552" d="M-272.026,415.778l.006.683a.067.067,0,0,1-.114-.047v-2.108a.324.324,0,0,0-.323-.323.325.325,0,0,0-.324.323c0,1.508.027,1.5-.067,1.5a.066.066,0,0,1-.067-.066l0,.1v-.192c0-.409-.629-.474-.648.063a.066.066,0,0,1-.132-.007v.049a.324.324,0,0,0-.323-.324.324.324,0,0,0-.324.324c0,.155.018.243-.066.243s-.067-.025-.067-.971a.323.323,0,0,0-.646.028c0,.036,0,1.857,0,1.893a1.775,1.775,0,0,0,1,1.682l-.794,7.059h2.763l-.8-7.163a4.25,4.25,0,0,0,1.43-1.334c.334-.459.049-1.1.047-1.184A.323.323,0,0,0-272.026,415.778Zm-1.536-.029v0Z" transform="translate(0 1.073)" fill="currentColor"/>
    <path id="Path_2553" data-name="Path 2553" d="M-263.627,414.479c-.6.608-.592.637-.658.61-.025-.01-.091-.055-.124-.268a14.375,14.375,0,0,1,.538-2.178.324.324,0,0,0-.228-.4.325.325,0,0,0-.4.229c-.22.825-.1.394-.517,1.934l-.008,0c-.175-.657-.348-1.3-.524-1.957a.325.325,0,0,0-.4-.229.323.323,0,0,0-.228.4c.229.856.106.4.419,1.564h0v.044a.067.067,0,0,1-.067.068c-.073,0-.067-.073-.068-.136a.325.325,0,0,0-.324-.324.324.324,0,0,0-.323.324c0,.364.023.443-.067.443a.066.066,0,0,1-.066-.067.324.324,0,1,0-.646-.033c0,1.011-.09,1.7.437,2.3a1.608,1.608,0,0,0,.443.374l-.79,8.879h2.762l-.791-8.879a5.537,5.537,0,0,0,2.086-2.247.324.324,0,0,0,0-.457A.323.323,0,0,0-263.627,414.479Z" transform="translate(1.666 0.696)" fill="currentColor"/>
    <path id="Path_2554" data-name="Path 2554" d="M-267.9,419.531a.319.319,0,0,0-.1-.227.324.324,0,0,0-.457,0l0,.313a.066.066,0,0,1-.114-.041v-.947a.324.324,0,0,0-.643-.047.665.665,0,0,0,0,.109h0v.2a.067.067,0,0,1-.134.006l0-.629a.323.323,0,0,0-.324-.322.323.323,0,0,0-.323.322c0,.5.028.57-.062.57s-.067-.086-.067-.3a.323.323,0,0,0-.323-.323.324.324,0,0,0-.324.323c0,.544.021.607-.068.607s-.067-.09-.067-.157a.323.323,0,0,0-.644.022h0c0,1.03-.093,1.726.437,2.337a1.514,1.514,0,0,0,.5.4l-.729,3.084h2.763l-.743-3.17A3.144,3.144,0,0,0-267.9,419.531Z" transform="translate(0.76 1.92)" fill="currentColor"/>
    <path id="Path_2555" data-name="Path 2555" d="M-259.038,417.643c-.177,0-.19.056-.815.69a.067.067,0,0,1-.115-.046V416.18a.323.323,0,0,0-.646,0v1.43a.067.067,0,0,1-.133,0v-2.192a.323.323,0,0,0-.323-.323.323.323,0,0,0-.324.323c0,2.2.029,2.141-.067,2.141s-.067,0-.067-1.466a.325.325,0,0,0-.324-.324.324.324,0,0,0-.323.324c0,1.442,0,.534,0,1.7a.067.067,0,0,1-.133,0v-.9a.324.324,0,0,0-.646.028c0,1.9-.11,2.516.437,3.145a1.447,1.447,0,0,0,.578.434l-.772,4.944h2.762l-.785-5.077a5.866,5.866,0,0,0,1.928-2.175.325.325,0,0,0,.092-.231A.322.322,0,0,0-259.038,417.643Z" transform="translate(2.595 1.31)" fill="currentColor"/>
  </g>
</svg>
